<svg
        xmlns="http://www.w3.org/2000/svg"
        viewBox="0 0 900 300.53"
        class="logo"
      >
        <g fill="#EA5455">
          <path
            d="M40.34 32.48C37.4 31 0 62.14 0 85.09c-.04 31.33 43.62 102.35 50.98 129.8 6.33 23.55-10.73 51.81-6.04 53.1 4.29 2.76 45.02-38.82 46.61-56.57C93.6 183.19 44 100.82 40.03 79.54c-4.61-24.77 3.6-46.5.3-47.07zM133.66.06c-3.75-1.88-51.44 37.83-51.44 67.1-.06 39.95 55.63 130.5 65.01 165.5 8.06 30.04-13.68 66.08-7.72 67.7 5.49 3.54 57.42-49.48 59.45-72.12 2.61-36-60.66-141.02-65.7-168.16-5.88-31.6 4.59-59.3.4-60.02zM229.98 32.48c-2.93-1.48-40.33 29.66-40.33 52.61-.05 31.33 43.6 102.35 50.98 129.8 6.32 23.55-10.73 51.81-6.06 53.1 4.3 2.76 45.04-38.82 46.62-56.57 2.05-28.23-47.57-110.6-51.52-131.88-4.61-24.77 3.6-46.5.3-47.07z"
          />
        </g>
        <path
          fill="#2D4059"
          d="M418.75 257.9H388.5l-16.3-44.77h-6.53v44.77H337.5V45.6h44.18a35.18 35.18 0 0135.29 35.28v96.96a34.86 34.86 0 01-16.6 29.95l18.38 50.11zM365.67 73.76v111.2h16.01a7.22 7.22 0 007.12-7.12V80.88a7.22 7.22 0 00-7.12-7.12h-16.01zM507.1 203.64V257h-27.28v-.89c-2.67.6-5.34.9-8.3.9a37.2 37.2 0 01-37.36-37.37v-31.73c0-8.3 3.26-16 9.19-21.94a30.49 30.49 0 0121.64-8.9h14.24v-32.02c0-4.45-3.86-8.3-8.3-8.3h-1.49a8.29 8.29 0 00-8.3 8.3v22.54h-27.58v-22.54a35.81 35.81 0 0135.88-35.88h1.48a35.81 35.81 0 0135.88 35.88l.3 78.58zm-35.58 25.8c4.45 0 8.3-3.56 8.3-8.01l-.3-36.47-14.53-.3c-1.18 0-1.77.6-2.37.9-.3.58-.89 1.18-.89 2.36v31.73a9.87 9.87 0 009.79 9.79zM601.7 45.59v212.02h-44.18a35.5 35.5 0 01-35.58-35.59v-96.96a35.69 35.69 0 0135.58-35.58h15.71V45.59h28.47zm-28.47 72.06h-15.71a7.34 7.34 0 00-7.41 7.41v96.96a7.34 7.34 0 007.4 7.42h15.72v-111.8zm71.47 138.77c.3-46.55.3-120.98 0-166.94l-28.17.3c.3 45.66.3 119.79 0 166.34l28.17.3zM616.53 54.19h28.17v27.58h-28.17V54.19zm116.83 149.45V257h-27.28v-.89c-2.67.6-5.34.9-8.3.9a37.2 37.2 0 01-37.37-37.37v-31.73c0-8.3 3.26-16 9.2-21.94a30.49 30.49 0 0121.64-8.9h14.23v-32.02c0-4.45-3.85-8.3-8.3-8.3h-1.48a8.29 8.29 0 00-8.3 8.3v22.54h-27.58v-22.54a35.81 35.81 0 0135.88-35.88h1.48a35.81 35.81 0 0135.88 35.88l.3 78.58zm-35.59 25.8c4.45 0 8.3-3.56 8.3-8.01l-.3-36.47-14.52-.3c-1.19 0-1.78.6-2.37.9-.3.58-.9 1.18-.9 2.36v31.73a9.87 9.87 0 009.8 9.79zm112.38-111.5H790v94.6c0 8.89 7.41 16 16.3 16v28.47a44.42 44.42 0 01-44.47-44.48v-94.59h-20.16V89.48h20.16V45H790v44.48h20.16v28.46zm51 138.78c-21.34 0-38.54-17.5-38.54-38.85v-92.51a35.69 35.69 0 0135.58-35.58h6.23A35.69 35.69 0 01900 125.36v38.84l-49.82.9v52.77c0 6.23 4.75 11.27 10.98 11.27 6.22 0 11.26-5.04 11.26-11.27V199.5H900v18.38a38.98 38.98 0 01-38.84 38.85zm3.27-139.67h-6.23c-4.45 0-8 3.86-8 8.3v12.46l22.23-.6v-11.85c0-4.45-3.55-8.3-8-8.3z"
        />
      </svg>